<?xml version="1.0" encoding="UTF-8"?>
<svg id="Layer_2" data-name="Layer 2" xmlns="http://www.w3.org/2000/svg" viewBox="0 0 443.9 121.29">
  <defs>
    <style>
      .cls-1 {
        fill: #002b57;
      }

      .cls-2 {
        fill: #fff;
      }

      .cls-3 {
        fill: #cb5b2b;
      }
    </style>
  </defs>
  <g id="Layer_1-2" data-name="Layer 1">
    <g>
      <g>
        <circle class="cls-1" cx="60.64" cy="60.64" r="60.64"/>
        <path class="cls-3" d="M82.11,82.11l-37.14,37.12c-20.9-5.56-37.37-22.02-42.93-42.94l37.12-37.12,42.94,42.94Z"/>
        <rect class="cls-2" x="39.18" y="39.18" width="42.93" height="42.93"/>
      </g>
      <g>
        <path class="cls-1" d="M198.36,41.35c-2.92-2.17-6.39-3.82-10.43-4.96-4.03-1.14-8.46-1.7-13.28-1.7h-18.72v51.9h20.74c4.95,0,9.34-.69,13.17-2.07,3.83-1.38,7.06-3.27,9.69-5.66,2.62-2.4,4.62-5.2,5.99-8.4,1.37-3.2,2.05-6.63,2.05-10.28,0-4.06-.81-7.67-2.42-10.83-1.61-3.16-3.88-5.83-6.79-8ZM192.02,69.26c-.95,2.6-2.25,4.8-3.9,6.58-1.65,1.78-3.57,3.14-5.76,4.06-2.19.92-4.54,1.38-7.02,1.38h-6.74v-41.34h6.74c2.64,0,5.07.52,7.29,1.55,2.22,1.03,4.13,2.46,5.73,4.27,1.6,1.81,2.85,3.96,3.75,6.45.9,2.49,1.35,5.19,1.35,8.09,0,3.37-.48,6.35-1.43,8.96Z"/>
        <polygon class="cls-1" points="241.4 86.59 253.17 86.59 253.17 30.25 241.4 34.64 241.4 86.59"/>
        <path class="cls-1" d="M315.45,47.85c-.86-.41-1.83-.78-2.91-1.12-1.08-.33-2.24-.6-3.48-.79-1.24-.19-2.51-.29-3.81-.29-2.72,0-5.24.35-7.56,1.06-2.32.71-4.35,1.71-6.08,3.01-1.73,1.3-3.08,2.87-4.06,4.71-.98,1.84-1.47,3.88-1.47,6.12,0,1.41.19,2.69.57,3.82.38,1.13.93,2.15,1.64,3.05.71.9,1.58,1.7,2.61,2.41,1.03.71,2.18,1.36,3.45,1.95-1.07.49-2.08,1.07-3.03,1.74-.95.67-1.78,1.38-2.48,2.14-.7.76-1.26,1.52-1.68,2.29-.42.77-.63,1.51-.63,2.2,0,.98.45,1.85,1.35,2.62.9.77,2.11,1.41,3.64,1.93-1.07.8-2.11,1.63-3.14,2.49-1.03.86-1.95,1.74-2.78,2.62-.83.89-1.49,1.78-2,2.68-.51.9-.76,1.79-.76,2.66,0,1.21.44,2.35,1.33,3.42.89,1.07,2.22,1.99,4,2.78s3.99,1.41,6.65,1.87c2.65.46,5.76.7,9.31.7,3.96,0,7.5-.38,10.63-1.14,3.12-.76,5.78-1.82,7.96-3.18,2.18-1.36,3.85-2.98,5.01-4.84,1.16-1.86,1.73-3.9,1.73-6.12,0-1.24-.23-2.38-.69-3.43s-1.23-1.97-2.3-2.76c-1.08-.78-2.49-1.42-4.25-1.91-1.75-.49-3.92-.78-6.51-.89-2.82-.1-5.23-.21-7.22-.33-1.99-.11-3.66-.24-5.01-.36-1.35-.13-2.41-.26-3.18-.39-.77-.13-1.36-.27-1.77-.42-.41-.16-.67-.32-.78-.48-.11-.17-.17-.35-.17-.56,0-.67.15-1.36.46-2.06.3-.71.72-1.25,1.26-1.64.74.13,1.56.25,2.46.37.9.12,1.78.17,2.65.17,2.97,0,5.69-.31,8.15-.93,2.46-.62,4.58-1.52,6.34-2.7,1.76-1.18,3.14-2.63,4.11-4.34.98-1.71,1.47-3.66,1.47-5.85,0-1.31-.2-2.53-.61-3.67-.41-1.13-.91-2.18-1.52-3.16h7.12v-4.13h-11.96c-.51-.46-1.19-.9-2.06-1.31ZM299.68,86.19c1.29.12,2.73.22,4.3.31,1.57.09,3.24.16,5.01.21,1.76.05,3.52.08,5.28.08,2.54,0,4.55.39,6.02,1.18s2.21,1.91,2.21,3.38c0,.69-.35,1.43-1.05,2.22-.7.78-1.7,1.5-3.01,2.16-1.31.65-2.91,1.2-4.8,1.64-1.89.44-4.03.66-6.42.66-2.21,0-4.15-.19-5.81-.58-1.66-.39-3.05-.88-4.15-1.48-1.1-.61-1.93-1.28-2.48-2.03-.55-.75-.82-1.49-.82-2.24,0-.49.06-1,.17-1.54.11-.54.28-1.07.5-1.58.22-.52.48-1.01.8-1.49.32-.48.69-.88,1.12-1.21.79.1,1.83.21,3.12.33ZM311.99,65.24c-.38,1.07-.89,2.02-1.52,2.86-.64.84-1.36,1.5-2.17,1.99-.81.49-1.65.73-2.51.73-1.12,0-2.13-.32-3.05-.94-.91-.63-1.7-1.48-2.36-2.55-.66-1.07-1.17-2.3-1.52-3.71-.36-1.4-.53-2.89-.53-4.46,0-1.29.11-2.51.34-3.67.23-1.16.59-2.17,1.09-3.03.5-.86,1.12-1.55,1.89-2.06.76-.52,1.68-.77,2.74-.77s2.17.32,3.16.96,1.86,1.53,2.61,2.64c.75,1.12,1.34,2.42,1.77,3.9.43,1.48.65,3.07.65,4.77,0,1.16-.19,2.27-.57,3.34Z"/>
        <path class="cls-1" d="M393.22,52.1c-1.92-1.78-4.2-3.17-6.84-4.19-2.64-1.01-5.51-1.52-8.61-1.52s-5.96.52-8.59,1.56c-2.63,1.04-4.9,2.49-6.8,4.34-1.9,1.85-3.4,4.06-4.48,6.62-1.08,2.56-1.62,5.36-1.62,8.39,0,2.83.54,5.46,1.62,7.89,1.08,2.43,2.58,4.55,4.49,6.35,1.92,1.8,4.19,3.22,6.82,4.24,2.63,1.03,5.49,1.54,8.59,1.54s5.97-.56,8.61-1.68c2.64-1.12,4.92-2.64,6.84-4.56,1.92-1.92,3.42-4.16,4.49-6.73,1.08-2.57,1.62-5.31,1.62-8.22s-.55-5.37-1.64-7.78c-1.09-2.4-2.6-4.49-4.51-6.27ZM386.1,74.44c-.37,1.57-.89,2.95-1.56,4.15s-1.47,2.15-2.38,2.86c-.91.71-1.9,1.06-2.97,1.06-1.6,0-3.03-.49-4.28-1.49-1.26-.99-2.32-2.33-3.2-4.01-.88-1.69-1.55-3.66-2.02-5.92-.47-2.26-.7-4.67-.7-7.22,0-1.7.2-3.31.59-4.84.39-1.53.92-2.88,1.58-4.05.66-1.17,1.42-2.1,2.29-2.8.86-.69,1.76-1.04,2.7-1.04,1.93,0,3.56.49,4.89,1.47,1.33.98,2.42,2.3,3.26,3.97.84,1.67,1.44,3.62,1.81,5.84.37,2.23.55,4.6.55,7.12,0,1.7-.18,3.33-.55,4.9Z"/>
        <path class="cls-1" d="M442.95,53.7c-.63-1.45-1.49-2.72-2.57-3.8-1.08-1.08-2.34-1.93-3.77-2.57-1.44-.63-2.95-.94-4.55-.94-2.06,0-4.13.32-6.21.94-2.08.63-4.04,1.62-5.87,2.95v-4.01l-11.89,4.4v35.92h11.89v-28.86c.69-.67,1.41-1.27,2.17-1.81.76-.54,1.5-1,2.23-1.37.72-.37,1.42-.66,2.08-.87.66-.2,1.24-.31,1.75-.31s1,.13,1.47.41c.47.27.89.67,1.26,1.2.37.53.66,1.18.88,1.97.22.79.32,1.68.32,2.68v26.97h11.77v-28.25c0-1.65-.32-3.19-.95-4.65Z"/>
        <polygon class="cls-1" points="335.72 86.59 347.57 86.59 347.57 47.56 335.72 51.96 335.72 86.59"/>
        <path class="cls-1" d="M341.58,30.32c-3.51,0-6.36,2.85-6.36,6.36s2.85,6.36,6.36,6.36,6.36-2.85,6.36-6.36-2.85-6.36-6.36-6.36Z"/>
        <polygon class="cls-1" points="265.02 86.59 276.87 86.59 276.87 47.56 265.02 51.96 265.02 86.59"/>
        <path class="cls-1" d="M270.88,30.32c-3.51,0-6.36,2.85-6.36,6.36s2.85,6.36,6.36,6.36,6.36-2.85,6.36-6.36-2.85-6.36-6.36-6.36Z"/>
        <polygon class="cls-1" points="218.28 86.59 230.13 86.59 230.13 47.56 218.28 51.96 218.28 86.59"/>
        <path class="cls-1" d="M224.15,30.32c-3.51,0-6.36,2.85-6.36,6.36s2.85,6.36,6.36,6.36,6.36-2.85,6.36-6.36-2.85-6.36-6.36-6.36Z"/>
      </g>
    </g>
  </g>
</svg>

